HIERARCHY
ROOT Hips
{
	OFFSET 0.00000 0.00000 0.00000
	CHANNELS 6 Xposition Yposition Zposition Zrotation Yrotation Xrotation 
	JOINT LHipJoint
	{
		OFFSET 0 0 0
		CHANNELS 3 Zrotation Yrotation Xrotation
		JOINT LeftUpLeg
		{
			OFFSET 1.55766 -1.60504 1.11378
			CHANNELS 3 Zrotation Yrotation Xrotation
			JOINT LeftLeg
			{
				OFFSET 2.29047 -6.29302 0.00000
				CHANNELS 3 Zrotation Yrotation Xrotation
				JOINT LeftFoot
				{
					OFFSET 2.52265 -6.93093 0.00000
					CHANNELS 3 Zrotation Yrotation Xrotation
					JOINT LeftToeBase
					{
						OFFSET 0.17633 -0.48446 2.02656
						CHANNELS 3 Zrotation Yrotation Xrotation
						End Site
						{
							OFFSET 0.00000 -0.00000 1.04989
						}
					}
				}
			}
		}
	}
	JOINT RHipJoint
	{
		OFFSET 0 0 0
		CHANNELS 3 Zrotation Yrotation Xrotation
		JOINT RightUpLeg
		{
			OFFSET -1.48599 -1.60504 1.11378
			CHANNELS 3 Zrotation Yrotation Xrotation
			JOINT RightLeg
			{
				OFFSET -2.27280 -6.24448 0.00000
				CHANNELS 3 Zrotation Yrotation Xrotation
				JOINT RightFoot
				{
					OFFSET -2.50834 -6.89161 0.00000
					CHANNELS 3 Zrotation Yrotation Xrotation
					JOINT RightToeBase
					{
						OFFSET -0.26967 -0.74090 2.08741
						CHANNELS 3 Zrotation Yrotation Xrotation
						End Site
						{
							OFFSET -0.00000 -0.00000 1.10614
						}
					}
				}
			}
		}
	}
	JOINT LowerBack
	{
		OFFSET 0 0 0
		CHANNELS 3 Zrotation Yrotation Xrotation
		JOINT Spine
		{
			OFFSET 0.06481 2.02437 -0.08472
			CHANNELS 3 Zrotation Yrotation Xrotation
			JOINT Spine1
			{
				OFFSET 0.00015 1.96711 0.18069
				CHANNELS 3 Zrotation Yrotation Xrotation
				JOINT Neck
				{
					OFFSET 0 0 0
					CHANNELS 3 Zrotation Yrotation Xrotation
					JOINT Neck1
					{
						OFFSET -0.29961 1.68293 -0.13041
						CHANNELS 3 Zrotation Yrotation Xrotation
						JOINT Head
						{
							OFFSET 0.59697 1.61501 -0.14669
							CHANNELS 3 Zrotation Yrotation Xrotation
							End Site
							{
								OFFSET 0.22973 1.74906 -0.10148
							}
						}
					}
				}
				JOINT LeftShoulder
				{
					OFFSET 0 0 0
					CHANNELS 3 Zrotation Yrotation Xrotation
					JOINT LeftArm
					{
						OFFSET 3.37968 1.02893 0.31147
						CHANNELS 3 Zrotation Yrotation Xrotation
						JOINT LeftForeArm
						{
							OFFSET 5.19807 -0.00000 -0.00000
							CHANNELS 3 Zrotation Yrotation Xrotation
							JOINT LeftHand
							{
								OFFSET 3.09370 -0.00000 -0.00000
								CHANNELS 3 Zrotation Yrotation Xrotation
								JOINT LeftFingerBase
								{
									OFFSET 0 0 0
									CHANNELS 3 Zrotation Yrotation Xrotation
									JOINT LeftHandIndex1
									{
										OFFSET 0.67263 -0.00000 -0.00000
										CHANNELS 3 Zrotation Yrotation Xrotation
										End Site
										{
											OFFSET 0.54229 -0.00000 -0.00000
										}
									}
								}
								JOINT LThumb
								{
									OFFSET 0 0 0
									CHANNELS 3 Zrotation Yrotation Xrotation
									End Site
									{
										OFFSET 0.55057 -0.00000 0.55057
									}
								}
							}
						}
					}
				}
				JOINT RightShoulder
				{
					OFFSET 0 0 0
					CHANNELS 3 Zrotation Yrotation Xrotation
					JOINT RightArm
					{
						OFFSET -3.38254 0.96355 -0.16120
						CHANNELS 3 Zrotation Yrotation Xrotation
						JOINT RightForeArm
						{
							OFFSET -5.45222 -0.00000 -0.00000
							CHANNELS 3 Zrotation Yrotation Xrotation
							JOINT RightHand
							{
								OFFSET -3.01284 -0.00000 -0.00000
								CHANNELS 3 Zrotation Yrotation Xrotation
								JOINT RightFingerBase
								{
									OFFSET 0 0 0
									CHANNELS 3 Zrotation Yrotation Xrotation
									JOINT RightHandIndex1
									{
										OFFSET -0.62230 -0.00000 -0.00000
										CHANNELS 3 Zrotation Yrotation Xrotation
										End Site
										{
											OFFSET -0.50171 -0.00000 -0.00000
										}
									}
								}
								JOINT RThumb
								{
									OFFSET 0 0 0
									CHANNELS 3 Zrotation Yrotation Xrotation
									End Site
									{
										OFFSET -0.50937 -0.00000 0.50937
									}
								}
							}
						}
					}
				}
			}
		}
	}
}
MOTION
Frames: 8
Frame Time: 0.105263
0.00 0.00 0.00 0 0 0 0 0 0 -21 0 0 0 0 0 0 0 0 0 0 0 0 0 0 21 0 0 0 0 0 0 0 0 0 0 0 0 0 0 0 0 0 0 0 0 0 0 -16 0 0 21 0 0 11 0 0 0 -8 0 0 0 0 0 0 0 0 0 0 0 0 0 0 0 0 0 0 0 0 8 0 0 0 0 0 0 0 0 0 0 0 0 0 0 0 0 0
0.00 0.00 0.00 -179.2460 -3.4370 -167.8980 0.0000 0.0000 0.0000 -21.1347 -8.3755 -20.5355 3.1042 10.8619 31.8155 1.2754 -15.4893 -21.4722 0.0142 -0.7708 -2.1182 0.0000 0.0000 0.0000 17.8286 10.6803 -20.6371 -4.4314 -12.7133 38.3046 -1.2687 12.3779 -20.6683 -1.2241 7.0173 -19.7666 0.8350 1.9189 -4.8783 -0.7753 1.9044 -7.1821 -1.2323 0.6192 -4.6392 -29.1034 -6.4044 28.6870 45.0156 -19.3184 -18.1308 26.3601 -14.4376 -1.7044 -0.0000 -0.0000 0.0000 -84.4461 13.1874 42.3355 17.5549 -27.5835 -4.3412 -0.0000 0.0000 -36.0715 14.8511 -8.9042 -2.3503 -7.1250 0.0000 -0.0000 -8.6631 20.8186 5.0760 -0.0000 -0.0000 0.0000 89.0480 -7.6317 16.3809 -13.6150 22.1817 -2.6810 0.0000 0.0000 23.9287 -7.8599 -1.7140 0.2366 7.1250 -0.0000 -0.0000 14.8841 -31.4801 5.0725
0.00 0.00 0.00 -181.5540 -2.4513 -169.7660 0.0000 0.0000 0.0000 -24.5892 -6.5154 -16.7410 2.6726 10.1452 29.4484 1.2368 -15.6223 -21.2475 0.0056 -0.4832 -1.3276 0.0000 0.0000 0.0000 13.9938 13.2733 -28.2469 -8.7985 -16.6763 55.3907 -0.3270 11.8577 -12.3153 -1.5796 7.9293 -22.4995 -1.9504 1.3770 -1.4945 -1.2152 1.3618 -6.0279 -0.1968 0.5690 -5.4183 -28.6055 -6.6584 28.1512 45.6782 -19.5396 -19.0287 26.6809 -14.7242 -1.6876 0.0000 -0.0000 0.0000 -83.8281 12.2452 41.9363 17.3594 -27.3291 -4.2510 -0.0000 0.0000 -35.8437 15.0512 -9.1412 -2.4462 -7.1250 0.0000 -0.0000 -8.5133 20.5667 5.0351 0.0000 -0.0000 0.0000 89.1949 -6.4295 16.2047 -14.0422 22.7950 -2.8444 0.0000 0.0000 23.6501 -8.7817 -1.9767 0.3053 7.1250 -0.0000 -0.0000 14.2056 -31.7647 4.7275
0.00 0.00 0.00 -182.1420 -4.4127 -170.0270 0.0000 0.0000 0.0000 -25.8115 -1.8597 -3.1517 0.8956 6.0317 16.8764 0.4273 -18.3423 -16.4726 0.0775 -1.7963 -4.9431 0.0000 0.0000 0.0000 15.3883 12.8222 -44.7714 -3.1318 -10.9053 31.9613 0.1446 9.1932 -3.3277 -1.0520 6.5219 -18.3066 -3.4018 0.0254 -0.1688 -1.2742 -0.5022 -5.8589 0.6205 -0.2681 -5.9767 -29.2479 -6.9385 25.6481 45.0046 -20.1864 -15.3261 25.0422 -14.7578 0.0635 -0.0000 -0.0000 0.0000 -83.5422 12.9380 38.5463 17.2289 -27.1586 -4.1913 -0.0000 0.0000 -35.4632 15.1737 -8.7932 -2.3740 -7.1250 0.0000 -0.0000 -8.4350 20.9164 4.9205 -0.0000 -0.0000 0.0000 91.4256 -10.0610 3.0163 -11.4000 18.8987 -1.9034 0.0000 0.0000 29.9882 -7.0998 -1.3228 0.1647 7.1250 -0.0000 -0.0000 15.4113 -31.0772 5.4189
0.00 0.00 0.00 -182.5860 -9.5698 -169.2040 0.0000 0.0000 0.0000 -23.4812 -0.0718 8.7998 0.3973 4.0471 11.2091 -1.2543 -21.2488 -1.4812 1.3123 -7.2562 -20.4765 0.0000 0.0000 0.0000 17.9782 9.4433 -42.5701 -1.8448 -8.5350 24.3512 0.6399 15.2474 -0.8270 -0.4392 4.2524 -11.7879 -3.7952 -0.4096 -1.6457 -1.1870 -1.1267 -6.4653 0.9463 -0.5913 -5.7505 -29.8141 -7.6886 25.0075 44.7048 -20.7778 -15.6180 24.4743 -14.8219 0.4488 -0.0000 -0.0000 0.0000 -86.1447 13.2267 35.8172 16.4481 -26.1244 -3.8411 -0.0000 0.0000 -34.1014 15.2185 -9.0099 -2.4395 -7.1250 0.0000 -0.0000 -8.3970 20.6926 4.9407 -0.0000 -0.0000 0.0000 91.0448 -12.1493 -2.3179 -10.7357 17.8820 -1.6939 0.0000 0.0000 32.9598 -5.7112 -1.6546 0.1655 7.1250 -0.0000 -0.0000 16.5429 -31.3565 5.7309
0.00 0.00 0.00 -178.9480 -11.0539 -169.2100 0.0000 0.0000 0.0000 -18.4032 -1.7372 8.3602 1.2075 6.9714 19.6307 -0.8686 -17.7068 14.2318 1.3123 -7.2563 -20.4768 0.0000 0.0000 0.0000 21.4971 13.9719 -37.5306 -2.6267 -10.0648 29.1867 0.3330 11.0600 -0.5908 -0.0604 1.5851 -4.3604 -0.5397 -0.3277 -5.1623 -0.0314 -1.0356 -7.1873 0.2785 -0.7509 -4.5342 -30.1935 -7.2993 25.5015 43.9867 -20.4455 -14.6992 24.2249 -14.5194 0.3475 -0.0000 -0.0000 0.0000 -86.5798 16.4562 36.4558 16.8496 -26.6590 -4.0196 -0.0000 0.0000 -34.5331 14.9733 -8.6007 -2.2904 -7.1250 0.0000 -0.0000 -8.5847 21.1228 4.9693 -0.0000 -0.0000 0.0000 90.1057 -11.5254 -0.4303 -11.1512 18.5197 -1.8237 0.0000 0.0000 31.3407 -6.0186 -1.8295 0.1929 7.1250 -0.0000 -0.0000 16.3356 -31.5351 5.5804
0.00 0.00 0.00 -177.8930 -10.9942 -169.8490 0.0000 0.0000 0.0000 -15.9232 -1.0319 4.1657 2.4701 9.7834 28.2780 1.4611 -9.8609 28.2933 0.1294 -2.3185 -6.3867 0.0000 0.0000 0.0000 24.0058 13.2700 -34.6173 -2.9932 -10.6841 31.2218 0.3072 12.8459 -4.2072 -0.0093 0.6243 -1.7157 0.4882 -0.1425 -5.6861 0.2006 -0.8317 -7.2684 -0.0600 -0.7048 -4.3343 -30.3742 -7.1272 25.7880 43.6228 -20.3795 -14.0726 24.0564 -14.4313 0.3786 -0.0000 0.0000 0.0000 -86.2905 17.0903 36.9504 16.7233 -26.4916 -3.9631 -0.0000 0.0000 -34.3944 14.4701 -8.5693 -2.2021 -7.1250 0.0000 -0.0000 -8.9473 21.1780 5.1729 -0.0000 0.0000 0.0000 89.4166 -10.4732 3.4223 -11.7553 19.4367 -2.0201 0.0000 0.0000 28.8309 -6.6940 -1.9575 0.2297 7.1250 -0.0000 -0.0000 15.8332 -31.6807 5.3387
0.00 0.00 0.00 -175.8670 -12.0172 -171.4340 0.0000 0.0000 0.0000 -11.7492 -2.4036 -5.3914 6.2305 14.6481 45.9001 0.4352 -15.1408 25.5017 0.1546 -2.5334 -6.9823 0.0000 0.0000 0.0000 28.4679 8.5013 -29.9314 -2.9015 -10.5338 30.7232 0.3274 16.4425 -7.8768 -0.0005 -0.1444 0.3968 3.0973 -0.0258 -3.9136 0.5253 -0.5943 -7.1189 -1.1613 -0.6819 -5.1986 -30.4223 -7.3085 25.9056 43.4573 -20.6662 -13.7899 23.8300 -14.5374 0.5415 -0.0000 -0.0000 0.0000 -85.4155 16.2416 38.1527 17.1591 -27.0670 -4.1595 -0.0000 0.0000 -34.5533 13.6831 -8.5471 -2.0723 -7.1250 0.0000 -0.0000 -9.5135 21.2353 5.4966 -0.0000 -0.0000 0.0000 88.2251 -8.5850 10.3832 -13.4651 21.9649 -2.6247 0.0000 0.0000 24.4761 -7.8515 -2.0391 0.2811 7.1250 -0.0000 -0.0000 14.9439 -31.7970 4.9761
